<svg xmlns="http://www.w3.org/2000/svg" viewBox="11 86.5 79.4 24" role="img" aria-labelledby="cmny-logo-title">
  <title id="cmny-logo-title">CMNY</title>
  <g fill="#0e7490">
    <path d="m14.7 98.5c0-4.9 3.9-8.5 8.9-8.5 2.5 0 5 0.9 6.8 2.8l0.2 0.2c-0.6 1-1.7 2.3-2.6 3.3-0.9-1.2-2.4-2.5-4.3-2.5-2.7-0.1-4.6 2-4.6 4.6s1.7 4.8 4.5 4.8c1.7 0 3.2-0.9 4.3-2l2.7 2.9c-1.1 1.2-3.4 2.8-7 2.8-5.1 0.2-8.9-3.2-8.9-8.4z"/>
    <path d="m32.4 90.2h4.9l4.3 9.4 4.4-9.4h4.6v16.6h-3.9v-10.4l-3.6 8.4h-2.7l-4-8.3 0.1 10.3h-4.1v-16.6z"/>
    <path d="m53.4 90.2h4l7.3 9.8v-9.8h4.1v16.5h-3.9l-7.3-9.9v9.9h-4.1l-0.1-16.5z"/>
    <path d="m76.3 101.4-5.8-11.2h4.5l3.8 6.9 3.8-6.9h4.4l-5.7 11.2v5.3h-4.7v-5.3h-0.3z"/>
  </g>
</svg>
