<svg xmlns="http://www.w3.org/2000/svg" width="969" height="694" viewBox="0 0 969.5 693.6">
<rect width="100%" height="100%" rx="12" fill="#0b1020"/>
<circle cx="20" cy="17" r="4" fill="#ff5f57"/><circle cx="34" cy="17" r="4" fill="#febc2e"/><circle cx="48" cy="17" r="4" fill="#28c840"/>
<text x="484.7" y="20" text-anchor="middle" font-family="ui-monospace, SFMono-Regular, Menlo, monospace" font-size="11" fill="#64748b">cmny --demo  |  110x34  |  overview  |  ocean</text>
<rect x="20.00" y="34.20" width="8.65" height="18.40" fill="#22d3ee"/>
<rect x="28.45" y="34.20" width="8.65" height="18.40" fill="#22d3ee"/>
<rect x="36.90" y="34.20" width="8.65" height="18.40" fill="#22d3ee"/>
<rect x="45.35" y="34.20" width="8.65" height="18.40" fill="#22d3ee"/>
<rect x="53.80" y="34.20" width="8.65" height="18.40" fill="#22d3ee"/>
<rect x="62.25" y="34.20" width="8.65" height="18.40" fill="#22d3ee"/>
<rect x="70.70" y="34.20" width="8.65" height="18.40" fill="#22d3ee"/>
<rect x="79.15" y="34.20" width="8.65" height="18.40" fill="#22d3ee"/>
<rect x="87.60" y="34.20" width="8.65" height="18.40" fill="#22d3ee"/>
<rect x="96.05" y="34.20" width="8.65" height="18.40" fill="#22d3ee"/>
<rect x="104.50" y="34.20" width="8.65" height="18.40" fill="#22d3ee"/>
<rect x="112.95" y="34.20" width="8.65" height="18.40" fill="#22d3ee"/>
<rect x="121.40" y="34.20" width="8.65" height="18.40" fill="#22d3ee"/>
<rect x="129.85" y="34.20" width="8.65" height="18.40" fill="#22d3ee"/>
<rect x="138.30" y="34.20" width="8.65" height="18.40" fill="#22d3ee"/>
<rect x="146.75" y="34.20" width="8.65" height="18.40" fill="#22d3ee"/>
<rect x="155.20" y="34.20" width="8.65" height="18.40" fill="#22d3ee"/>
<rect x="163.65" y="34.20" width="8.65" height="18.40" fill="#22d3ee"/>
<rect x="172.10" y="34.20" width="8.65" height="18.40" fill="#22d3ee"/>
<rect x="180.55" y="34.20" width="8.65" height="18.40" fill="#22d3ee"/>
<rect x="189.00" y="34.20" width="8.65" height="18.40" fill="#22d3ee"/>
<rect x="197.45" y="34.20" width="8.65" height="18.40" fill="#22d3ee"/>
<rect x="205.90" y="34.20" width="8.65" height="18.40" fill="#22d3ee"/>
<rect x="214.35" y="34.20" width="8.65" height="18.40" fill="#22d3ee"/>
<rect x="222.80" y="34.20" width="8.65" height="18.40" fill="#22d3ee"/>
<rect x="231.25" y="34.20" width="8.65" height="18.40" fill="#22d3ee"/>
<rect x="239.70" y="34.20" width="8.65" height="18.40" fill="#22d3ee"/>
<rect x="248.15" y="34.20" width="8.65" height="18.40" fill="#22d3ee"/>
<rect x="256.60" y="34.20" width="8.65" height="18.40" fill="#22d3ee"/>
<rect x="265.05" y="34.20" width="8.65" height="18.40" fill="#22d3ee"/>
<rect x="273.50" y="34.20" width="8.65" height="18.40" fill="#22d3ee"/>
<rect x="281.95" y="34.20" width="8.65" height="18.40" fill="#22d3ee"/>
<rect x="290.40" y="34.20" width="8.65" height="18.40" fill="#22d3ee"/>
<rect x="298.85" y="34.20" width="8.65" height="18.40" fill="#22d3ee"/>
<rect x="307.30" y="34.20" width="8.65" height="18.40" fill="#22d3ee"/>
<rect x="315.75" y="34.20" width="8.65" height="18.40" fill="#22d3ee"/>
<rect x="324.20" y="34.20" width="8.65" height="18.40" fill="#22d3ee"/>
<rect x="332.65" y="34.20" width="8.65" height="18.40" fill="#22d3ee"/>
<rect x="341.10" y="34.20" width="8.65" height="18.40" fill="#22d3ee"/>
<rect x="349.55" y="34.20" width="8.65" height="18.40" fill="#22d3ee"/>
<rect x="358.00" y="34.20" width="8.65" height="18.40" fill="#22d3ee"/>
<rect x="366.45" y="34.20" width="8.65" height="18.40" fill="#22d3ee"/>
<rect x="374.90" y="34.20" width="8.65" height="18.40" fill="#22d3ee"/>
<rect x="383.35" y="34.20" width="8.65" height="18.40" fill="#22d3ee"/>
<rect x="391.80" y="34.20" width="8.65" height="18.40" fill="#22d3ee"/>
<rect x="400.25" y="34.20" width="8.65" height="18.40" fill="#22d3ee"/>
<rect x="408.70" y="34.20" width="8.65" height="18.40" fill="#22d3ee"/>
<rect x="417.15" y="34.20" width="8.65" height="18.40" fill="#22d3ee"/>
<rect x="425.60" y="34.20" width="8.65" height="18.40" fill="#22d3ee"/>
<rect x="434.05" y="34.20" width="8.65" height="18.40" fill="#22d3ee"/>
<rect x="442.50" y="34.20" width="8.65" height="18.40" fill="#22d3ee"/>
<rect x="450.95" y="34.20" width="8.65" height="18.40" fill="#22d3ee"/>
<rect x="459.40" y="34.20" width="8.65" height="18.40" fill="#22d3ee"/>
<rect x="467.85" y="34.20" width="8.65" height="18.40" fill="#22d3ee"/>
<rect x="476.30" y="34.20" width="8.65" height="18.40" fill="#22d3ee"/>
<rect x="484.75" y="34.20" width="8.65" height="18.40" fill="#22d3ee"/>
<rect x="493.20" y="34.20" width="8.65" height="18.40" fill="#22d3ee"/>
<rect x="501.65" y="34.20" width="8.65" height="18.40" fill="#22d3ee"/>
<rect x="510.10" y="34.20" width="8.65" height="18.40" fill="#22d3ee"/>
<rect x="518.55" y="34.20" width="8.65" height="18.40" fill="#22d3ee"/>
<rect x="527.00" y="34.20" width="8.65" height="18.40" fill="#22d3ee"/>
<rect x="535.45" y="34.20" width="8.65" height="18.40" fill="#22d3ee"/>
<rect x="543.90" y="34.20" width="8.65" height="18.40" fill="#22d3ee"/>
<rect x="552.35" y="34.20" width="8.65" height="18.40" fill="#22d3ee"/>
<rect x="560.80" y="34.20" width="8.65" height="18.40" fill="#22d3ee"/>
<rect x="569.25" y="34.20" width="8.65" height="18.40" fill="#22d3ee"/>
<rect x="577.70" y="34.20" width="8.65" height="18.40" fill="#22d3ee"/>
<rect x="586.15" y="34.20" width="8.65" height="18.40" fill="#22d3ee"/>
<rect x="594.60" y="34.20" width="8.65" height="18.40" fill="#22d3ee"/>
<rect x="603.05" y="34.20" width="8.65" height="18.40" fill="#22d3ee"/>
<rect x="611.50" y="34.20" width="8.65" height="18.40" fill="#22d3ee"/>
<rect x="619.95" y="34.20" width="8.65" height="18.40" fill="#22d3ee"/>
<rect x="628.40" y="34.20" width="8.65" height="18.40" fill="#22d3ee"/>
<rect x="636.85" y="34.20" width="8.65" height="18.40" fill="#22d3ee"/>
<rect x="645.30" y="34.20" width="8.65" height="18.40" fill="#22d3ee"/>
<rect x="653.75" y="34.20" width="8.65" height="18.40" fill="#22d3ee"/>
<rect x="662.20" y="34.20" width="8.65" height="18.40" fill="#22d3ee"/>
<rect x="670.65" y="34.20" width="8.65" height="18.40" fill="#22d3ee"/>
<rect x="679.10" y="34.20" width="8.65" height="18.40" fill="#22d3ee"/>
<rect x="687.55" y="34.20" width="8.65" height="18.40" fill="#22d3ee"/>
<rect x="696.00" y="34.20" width="8.65" height="18.40" fill="#22d3ee"/>
<rect x="704.45" y="34.20" width="8.65" height="18.40" fill="#22d3ee"/>
<rect x="712.90" y="34.20" width="8.65" height="18.40" fill="#22d3ee"/>
<rect x="721.35" y="34.20" width="8.65" height="18.40" fill="#22d3ee"/>
<rect x="729.80" y="34.20" width="8.65" height="18.40" fill="#22d3ee"/>
<rect x="738.25" y="34.20" width="8.65" height="18.40" fill="#22d3ee"/>
<rect x="746.70" y="34.20" width="8.65" height="18.40" fill="#22d3ee"/>
<rect x="755.15" y="34.20" width="8.65" height="18.40" fill="#22d3ee"/>
<rect x="763.60" y="34.20" width="8.65" height="18.40" fill="#22d3ee"/>
<rect x="772.05" y="34.20" width="8.65" height="18.40" fill="#22d3ee"/>
<rect x="780.50" y="34.20" width="8.65" height="18.40" fill="#22d3ee"/>
<rect x="788.95" y="34.20" width="8.65" height="18.40" fill="#22d3ee"/>
<rect x="797.40" y="34.20" width="8.65" height="18.40" fill="#22d3ee"/>
<rect x="805.85" y="34.20" width="8.65" height="18.40" fill="#22d3ee"/>
<rect x="814.30" y="34.20" width="8.65" height="18.40" fill="#22d3ee"/>
<rect x="822.75" y="34.20" width="8.65" height="18.40" fill="#22d3ee"/>
<rect x="831.20" y="34.20" width="8.65" height="18.40" fill="#22d3ee"/>
<rect x="839.65" y="34.20" width="8.65" height="18.40" fill="#22d3ee"/>
<rect x="848.10" y="34.20" width="8.65" height="18.40" fill="#22d3ee"/>
<rect x="856.55" y="34.20" width="8.65" height="18.40" fill="#22d3ee"/>
<rect x="865.00" y="34.20" width="8.65" height="18.40" fill="#22d3ee"/>
<rect x="873.45" y="34.20" width="8.65" height="18.40" fill="#22d3ee"/>
<rect x="881.90" y="34.20" width="8.65" height="18.40" fill="#22d3ee"/>
<rect x="890.35" y="34.20" width="8.65" height="18.40" fill="#22d3ee"/>
<rect x="898.80" y="34.20" width="8.65" height="18.40" fill="#22d3ee"/>
<rect x="907.25" y="34.20" width="8.65" height="18.40" fill="#22d3ee"/>
<rect x="915.70" y="34.20" width="8.65" height="18.40" fill="#22d3ee"/>
<rect x="924.15" y="34.20" width="8.65" height="18.40" fill="#22d3ee"/>
<rect x="932.60" y="34.20" width="8.65" height="18.40" fill="#22d3ee"/>
<rect x="941.05" y="34.20" width="8.65" height="18.40" fill="#22d3ee"/>
<text x="36.90" y="48.00" font-family="Menlo, monospace" font-size="14" font-variant-ligatures="none" xml:space="preserve" font-weight="700" opacity="1" fill="#0b1020">CMNY  //  YOUR MONEY, CLEARLY                                                         [ DEMO ]  July 2026</text>
<text x="36.90" y="66.40" font-family="Menlo, monospace" font-size="14" font-variant-ligatures="none" xml:space="preserve" font-weight="700" opacity="1" fill="#22d3ee">[1] Overview</text>
<text x="163.65" y="66.40" font-family="Menlo, monospace" font-size="14" font-variant-ligatures="none" xml:space="preserve" font-weight="400" opacity="1" fill="#cbd5e1">[2] Activity   [3] Reports</text>
<text x="20.00" y="103.20" font-family="Menlo, monospace" font-size="14" font-variant-ligatures="none" xml:space="preserve" font-weight="400" opacity="1" fill="#cbd5e1">+-</text>
<text x="36.90" y="103.20" font-family="Menlo, monospace" font-size="14" font-variant-ligatures="none" xml:space="preserve" font-weight="700" opacity="1" fill="#22d3ee">INCOME</text>
<text x="87.60" y="103.20" font-family="Menlo, monospace" font-size="14" font-variant-ligatures="none" xml:space="preserve" font-weight="400" opacity="1" fill="#cbd5e1">-----------------+ +-</text>
<text x="265.05" y="103.20" font-family="Menlo, monospace" font-size="14" font-variant-ligatures="none" xml:space="preserve" font-weight="700" opacity="1" fill="#22d3ee">SPENT</text>
<text x="307.30" y="103.20" font-family="Menlo, monospace" font-size="14" font-variant-ligatures="none" xml:space="preserve" font-weight="400" opacity="1" fill="#cbd5e1">------------------+ +-</text>
<text x="493.20" y="103.20" font-family="Menlo, monospace" font-size="14" font-variant-ligatures="none" xml:space="preserve" font-weight="700" opacity="1" fill="#22d3ee">SAVED</text>
<text x="535.45" y="103.20" font-family="Menlo, monospace" font-size="14" font-variant-ligatures="none" xml:space="preserve" font-weight="400" opacity="1" fill="#cbd5e1">------------------+ +-</text>
<text x="721.35" y="103.20" font-family="Menlo, monospace" font-size="14" font-variant-ligatures="none" xml:space="preserve" font-weight="700" opacity="1" fill="#22d3ee">SAVINGS RATE</text>
<text x="822.75" y="103.20" font-family="Menlo, monospace" font-size="14" font-variant-ligatures="none" xml:space="preserve" font-weight="400" opacity="1" fill="#cbd5e1">--------------+</text>
<text x="20.00" y="121.60" font-family="Menlo, monospace" font-size="14" font-variant-ligatures="none" xml:space="preserve" font-weight="400" opacity="1" fill="#cbd5e1">|                        | |                        | |                        | |                           |</text>
<text x="20.00" y="140.00" font-family="Menlo, monospace" font-size="14" font-variant-ligatures="none" xml:space="preserve" font-weight="400" opacity="1" fill="#cbd5e1">|</text>
<text x="79.15" y="140.00" font-family="Menlo, monospace" font-size="14" font-variant-ligatures="none" xml:space="preserve" font-weight="700" opacity="1" fill="#22c55e">3,650.00 EUR</text>
<text x="231.25" y="140.00" font-family="Menlo, monospace" font-size="14" font-variant-ligatures="none" xml:space="preserve" font-weight="400" opacity="1" fill="#cbd5e1">| |</text>
<text x="307.30" y="140.00" font-family="Menlo, monospace" font-size="14" font-variant-ligatures="none" xml:space="preserve" font-weight="700" opacity="1" fill="#ef4444">1,623.01 EUR</text>
<text x="459.40" y="140.00" font-family="Menlo, monospace" font-size="14" font-variant-ligatures="none" xml:space="preserve" font-weight="400" opacity="1" fill="#cbd5e1">| |</text>
<text x="535.45" y="140.00" font-family="Menlo, monospace" font-size="14" font-variant-ligatures="none" xml:space="preserve" font-weight="700" opacity="1" fill="#22c55e">2,026.99 EUR</text>
<text x="687.55" y="140.00" font-family="Menlo, monospace" font-size="14" font-variant-ligatures="none" xml:space="preserve" font-weight="400" opacity="1" fill="#cbd5e1">| |</text>
<text x="805.85" y="140.00" font-family="Menlo, monospace" font-size="14" font-variant-ligatures="none" xml:space="preserve" font-weight="700" opacity="1" fill="#22c55e">55.5%</text>
<text x="941.05" y="140.00" font-family="Menlo, monospace" font-size="14" font-variant-ligatures="none" xml:space="preserve" font-weight="400" opacity="1" fill="#cbd5e1">|</text>
<text x="20.00" y="158.40" font-family="Menlo, monospace" font-size="14" font-variant-ligatures="none" xml:space="preserve" font-weight="400" opacity="1" fill="#cbd5e1">|                        | |                        | |                        | |                           |</text>
<text x="20.00" y="176.80" font-family="Menlo, monospace" font-size="14" font-variant-ligatures="none" xml:space="preserve" font-weight="400" opacity="1" fill="#cbd5e1">+------------------------+ +------------------------+ +------------------------+ +---------------------------+</text>
<text x="20.00" y="213.60" font-family="Menlo, monospace" font-size="14" font-variant-ligatures="none" xml:space="preserve" font-weight="400" opacity="1" fill="#cbd5e1">+-</text>
<text x="36.90" y="213.60" font-family="Menlo, monospace" font-size="14" font-variant-ligatures="none" xml:space="preserve" font-weight="700" opacity="1" fill="#22d3ee">SPENDING BY CATEGORY</text>
<text x="205.90" y="213.60" font-family="Menlo, monospace" font-size="14" font-variant-ligatures="none" xml:space="preserve" font-weight="400" opacity="1" fill="#cbd5e1">--------------------------------+ +-</text>
<text x="510.10" y="213.60" font-family="Menlo, monospace" font-size="14" font-variant-ligatures="none" xml:space="preserve" font-weight="700" opacity="1" fill="#22d3ee">SIX-MONTH SPEND</text>
<text x="636.85" y="213.60" font-family="Menlo, monospace" font-size="14" font-variant-ligatures="none" xml:space="preserve" font-weight="400" opacity="1" fill="#cbd5e1">------------------------------------+</text>
<text x="20.00" y="232.00" font-family="Menlo, monospace" font-size="14" font-variant-ligatures="none" xml:space="preserve" font-weight="400" opacity="1" fill="#cbd5e1">| Housing</text>
<text x="155.20" y="232.00" font-family="Menlo, monospace" font-size="14" font-variant-ligatures="none" xml:space="preserve" font-weight="400" opacity="1" fill="#ef4444">#######################</text>
<text x="400.25" y="232.00" font-family="Menlo, monospace" font-size="14" font-variant-ligatures="none" xml:space="preserve" font-weight="400" opacity="1" fill="#cbd5e1">1,100.00 | | 2026-02</text>
<text x="577.70" y="232.00" font-family="Menlo, monospace" font-size="14" font-variant-ligatures="none" xml:space="preserve" font-weight="400" opacity="1" fill="#22d3ee">=====================</text>
<text x="865.00" y="232.00" font-family="Menlo, monospace" font-size="14" font-variant-ligatures="none" xml:space="preserve" font-weight="400" opacity="1" fill="#cbd5e1">1,365.00 |</text>
<text x="20.00" y="250.40" font-family="Menlo, monospace" font-size="14" font-variant-ligatures="none" xml:space="preserve" font-weight="400" opacity="1" fill="#cbd5e1">| Food</text>
<text x="155.20" y="250.40" font-family="Menlo, monospace" font-size="14" font-variant-ligatures="none" xml:space="preserve" font-weight="400" opacity="1" fill="#ef4444">#####</text>
<text x="197.45" y="250.40" font-family="Menlo, monospace" font-size="14" font-variant-ligatures="none" xml:space="preserve" font-weight="400" opacity="0.55" fill="#cbd5e1">..................</text>
<text x="417.15" y="250.40" font-family="Menlo, monospace" font-size="14" font-variant-ligatures="none" xml:space="preserve" font-weight="400" opacity="1" fill="#cbd5e1">250.62 | | 2026-03</text>
<text x="577.70" y="250.40" font-family="Menlo, monospace" font-size="14" font-variant-ligatures="none" xml:space="preserve" font-weight="400" opacity="1" fill="#22d3ee">============================</text>
<text x="865.00" y="250.40" font-family="Menlo, monospace" font-size="14" font-variant-ligatures="none" xml:space="preserve" font-weight="400" opacity="1" fill="#cbd5e1">1,740.00 |</text>
<text x="20.00" y="268.80" font-family="Menlo, monospace" font-size="14" font-variant-ligatures="none" xml:space="preserve" font-weight="400" opacity="1" fill="#cbd5e1">| Transport</text>
<text x="155.20" y="268.80" font-family="Menlo, monospace" font-size="14" font-variant-ligatures="none" xml:space="preserve" font-weight="400" opacity="1" fill="#ef4444">#</text>
<text x="163.65" y="268.80" font-family="Menlo, monospace" font-size="14" font-variant-ligatures="none" xml:space="preserve" font-weight="400" opacity="0.55" fill="#cbd5e1">......................</text>
<text x="425.60" y="268.80" font-family="Menlo, monospace" font-size="14" font-variant-ligatures="none" xml:space="preserve" font-weight="400" opacity="1" fill="#cbd5e1">89.00 | | 2026-04</text>
<text x="577.70" y="268.80" font-family="Menlo, monospace" font-size="14" font-variant-ligatures="none" xml:space="preserve" font-weight="400" opacity="1" fill="#22d3ee">======================</text>
<text x="865.00" y="268.80" font-family="Menlo, monospace" font-size="14" font-variant-ligatures="none" xml:space="preserve" font-weight="400" opacity="1" fill="#cbd5e1">1,412.50 |</text>
<text x="20.00" y="287.20" font-family="Menlo, monospace" font-size="14" font-variant-ligatures="none" xml:space="preserve" font-weight="400" opacity="1" fill="#cbd5e1">| Bills</text>
<text x="155.20" y="287.20" font-family="Menlo, monospace" font-size="14" font-variant-ligatures="none" xml:space="preserve" font-weight="400" opacity="1" fill="#ef4444">#</text>
<text x="163.65" y="287.20" font-family="Menlo, monospace" font-size="14" font-variant-ligatures="none" xml:space="preserve" font-weight="400" opacity="0.55" fill="#cbd5e1">......................</text>
<text x="425.60" y="287.20" font-family="Menlo, monospace" font-size="14" font-variant-ligatures="none" xml:space="preserve" font-weight="400" opacity="1" fill="#cbd5e1">79.99 | | 2026-05</text>
<text x="577.70" y="287.20" font-family="Menlo, monospace" font-size="14" font-variant-ligatures="none" xml:space="preserve" font-weight="400" opacity="1" fill="#22d3ee">========================</text>
<text x="865.00" y="287.20" font-family="Menlo, monospace" font-size="14" font-variant-ligatures="none" xml:space="preserve" font-weight="400" opacity="1" fill="#cbd5e1">1,492.00 |</text>
<text x="20.00" y="305.60" font-family="Menlo, monospace" font-size="14" font-variant-ligatures="none" xml:space="preserve" font-weight="400" opacity="1" fill="#cbd5e1">| Fun</text>
<text x="155.20" y="305.60" font-family="Menlo, monospace" font-size="14" font-variant-ligatures="none" xml:space="preserve" font-weight="400" opacity="1" fill="#ef4444">#</text>
<text x="163.65" y="305.60" font-family="Menlo, monospace" font-size="14" font-variant-ligatures="none" xml:space="preserve" font-weight="400" opacity="0.55" fill="#cbd5e1">......................</text>
<text x="425.60" y="305.60" font-family="Menlo, monospace" font-size="14" font-variant-ligatures="none" xml:space="preserve" font-weight="400" opacity="1" fill="#cbd5e1">67.50 | | 2026-06</text>
<text x="577.70" y="305.60" font-family="Menlo, monospace" font-size="14" font-variant-ligatures="none" xml:space="preserve" font-weight="400" opacity="1" fill="#22d3ee">=========================</text>
<text x="865.00" y="305.60" font-family="Menlo, monospace" font-size="14" font-variant-ligatures="none" xml:space="preserve" font-weight="400" opacity="1" fill="#cbd5e1">1,605.40 |</text>
<text x="20.00" y="324.00" font-family="Menlo, monospace" font-size="14" font-variant-ligatures="none" xml:space="preserve" font-weight="400" opacity="1" fill="#cbd5e1">| Health</text>
<text x="155.20" y="324.00" font-family="Menlo, monospace" font-size="14" font-variant-ligatures="none" xml:space="preserve" font-weight="400" opacity="1" fill="#ef4444">#</text>
<text x="163.65" y="324.00" font-family="Menlo, monospace" font-size="14" font-variant-ligatures="none" xml:space="preserve" font-weight="400" opacity="0.55" fill="#cbd5e1">......................</text>
<text x="425.60" y="324.00" font-family="Menlo, monospace" font-size="14" font-variant-ligatures="none" xml:space="preserve" font-weight="400" opacity="1" fill="#cbd5e1">35.90 | | 2026-07</text>
<text x="577.70" y="324.00" font-family="Menlo, monospace" font-size="14" font-variant-ligatures="none" xml:space="preserve" font-weight="400" opacity="1" fill="#22d3ee">==========================</text>
<text x="865.00" y="324.00" font-family="Menlo, monospace" font-size="14" font-variant-ligatures="none" xml:space="preserve" font-weight="400" opacity="1" fill="#cbd5e1">1,623.01 |</text>
<text x="20.00" y="342.40" font-family="Menlo, monospace" font-size="14" font-variant-ligatures="none" xml:space="preserve" font-weight="400" opacity="1" fill="#cbd5e1">|                                                     | |                                                    |</text>
<text x="20.00" y="360.80" font-family="Menlo, monospace" font-size="14" font-variant-ligatures="none" xml:space="preserve" font-weight="400" opacity="1" fill="#cbd5e1">+-----------------------------------------------------+ +----------------------------------------------------+</text>
<text x="20.00" y="397.60" font-family="Menlo, monospace" font-size="14" font-variant-ligatures="none" xml:space="preserve" font-weight="400" opacity="1" fill="#cbd5e1">+-</text>
<text x="36.90" y="397.60" font-family="Menlo, monospace" font-size="14" font-variant-ligatures="none" xml:space="preserve" font-weight="700" opacity="1" fill="#22d3ee">RECENT ACTIVITY</text>
<text x="163.65" y="397.60" font-family="Menlo, monospace" font-size="14" font-variant-ligatures="none" xml:space="preserve" font-weight="400" opacity="1" fill="#cbd5e1">--------------------------------------------------------------------------------------------+</text>
<text x="20.00" y="416.00" font-family="Menlo, monospace" font-size="14" font-variant-ligatures="none" xml:space="preserve" font-weight="400" opacity="1" fill="#cbd5e1">| 2026-07-20    Food             Coffee and lunch</text>
<text x="881.90" y="416.00" font-family="Menlo, monospace" font-size="14" font-variant-ligatures="none" xml:space="preserve" font-weight="400" opacity="1" fill="#ef4444">-23.80</text>
<text x="941.05" y="416.00" font-family="Menlo, monospace" font-size="14" font-variant-ligatures="none" xml:space="preserve" font-weight="400" opacity="1" fill="#cbd5e1">|</text>
<text x="20.00" y="434.40" font-family="Menlo, monospace" font-size="14" font-variant-ligatures="none" xml:space="preserve" font-weight="400" opacity="1" fill="#cbd5e1">| 2026-07-18    Fun              Concert ticket</text>
<text x="881.90" y="434.40" font-family="Menlo, monospace" font-size="14" font-variant-ligatures="none" xml:space="preserve" font-weight="400" opacity="1" fill="#ef4444">-67.50</text>
<text x="941.05" y="434.40" font-family="Menlo, monospace" font-size="14" font-variant-ligatures="none" xml:space="preserve" font-weight="400" opacity="1" fill="#cbd5e1">|</text>
<text x="20.00" y="452.80" font-family="Menlo, monospace" font-size="14" font-variant-ligatures="none" xml:space="preserve" font-weight="400" opacity="1" fill="#cbd5e1">| 2026-07-15    Health           Pharmacy</text>
<text x="881.90" y="452.80" font-family="Menlo, monospace" font-size="14" font-variant-ligatures="none" xml:space="preserve" font-weight="400" opacity="1" fill="#ef4444">-35.90</text>
<text x="941.05" y="452.80" font-family="Menlo, monospace" font-size="14" font-variant-ligatures="none" xml:space="preserve" font-weight="400" opacity="1" fill="#cbd5e1">|</text>
<text x="20.00" y="471.20" font-family="Menlo, monospace" font-size="14" font-variant-ligatures="none" xml:space="preserve" font-weight="400" opacity="1" fill="#cbd5e1">| 2026-07-12    Bills            Phone and internet</text>
<text x="881.90" y="471.20" font-family="Menlo, monospace" font-size="14" font-variant-ligatures="none" xml:space="preserve" font-weight="400" opacity="1" fill="#ef4444">-79.99</text>
<text x="941.05" y="471.20" font-family="Menlo, monospace" font-size="14" font-variant-ligatures="none" xml:space="preserve" font-weight="400" opacity="1" fill="#cbd5e1">|</text>
<text x="20.00" y="489.60" font-family="Menlo, monospace" font-size="14" font-variant-ligatures="none" xml:space="preserve" font-weight="400" opacity="1" fill="#cbd5e1">| 2026-07-10    Food             Dinner with friends</text>
<text x="881.90" y="489.60" font-family="Menlo, monospace" font-size="14" font-variant-ligatures="none" xml:space="preserve" font-weight="400" opacity="1" fill="#ef4444">-42.50</text>
<text x="941.05" y="489.60" font-family="Menlo, monospace" font-size="14" font-variant-ligatures="none" xml:space="preserve" font-weight="400" opacity="1" fill="#cbd5e1">|</text>
<text x="20.00" y="508.00" font-family="Menlo, monospace" font-size="14" font-variant-ligatures="none" xml:space="preserve" font-weight="400" opacity="1" fill="#cbd5e1">| 2026-07-08    Freelance        Landing page project</text>
<text x="873.45" y="508.00" font-family="Menlo, monospace" font-size="14" font-variant-ligatures="none" xml:space="preserve" font-weight="400" opacity="1" fill="#22c55e">+450.00</text>
<text x="941.05" y="508.00" font-family="Menlo, monospace" font-size="14" font-variant-ligatures="none" xml:space="preserve" font-weight="400" opacity="1" fill="#cbd5e1">|</text>
<text x="20.00" y="526.40" font-family="Menlo, monospace" font-size="14" font-variant-ligatures="none" xml:space="preserve" font-weight="400" opacity="1" fill="#cbd5e1">|                                                                                                            |</text>
<text x="20.00" y="544.80" font-family="Menlo, monospace" font-size="14" font-variant-ligatures="none" xml:space="preserve" font-weight="400" opacity="1" fill="#cbd5e1">|                                                                                                            |</text>
<text x="20.00" y="563.20" font-family="Menlo, monospace" font-size="14" font-variant-ligatures="none" xml:space="preserve" font-weight="400" opacity="1" fill="#cbd5e1">|                                                                                                            |</text>
<text x="20.00" y="581.60" font-family="Menlo, monospace" font-size="14" font-variant-ligatures="none" xml:space="preserve" font-weight="400" opacity="1" fill="#cbd5e1">|                                                                                                            |</text>
<text x="20.00" y="600.00" font-family="Menlo, monospace" font-size="14" font-variant-ligatures="none" xml:space="preserve" font-weight="400" opacity="1" fill="#cbd5e1">|                                                                                                            |</text>
<text x="20.00" y="618.40" font-family="Menlo, monospace" font-size="14" font-variant-ligatures="none" xml:space="preserve" font-weight="400" opacity="1" fill="#cbd5e1">|                                                                                                            |</text>
<text x="20.00" y="636.80" font-family="Menlo, monospace" font-size="14" font-variant-ligatures="none" xml:space="preserve" font-weight="400" opacity="1" fill="#cbd5e1">+------------------------------------------------------------------------------------------------------------+</text>
<rect x="20.00" y="641.40" width="8.65" height="18.40" fill="#e5e7eb"/>
<rect x="28.45" y="641.40" width="8.65" height="18.40" fill="#e5e7eb"/>
<rect x="36.90" y="641.40" width="8.65" height="18.40" fill="#e5e7eb"/>
<rect x="45.35" y="641.40" width="8.65" height="18.40" fill="#e5e7eb"/>
<rect x="53.80" y="641.40" width="8.65" height="18.40" fill="#e5e7eb"/>
<rect x="62.25" y="641.40" width="8.65" height="18.40" fill="#e5e7eb"/>
<rect x="70.70" y="641.40" width="8.65" height="18.40" fill="#e5e7eb"/>
<rect x="79.15" y="641.40" width="8.65" height="18.40" fill="#e5e7eb"/>
<rect x="87.60" y="641.40" width="8.65" height="18.40" fill="#e5e7eb"/>
<rect x="96.05" y="641.40" width="8.65" height="18.40" fill="#e5e7eb"/>
<rect x="104.50" y="641.40" width="8.65" height="18.40" fill="#e5e7eb"/>
<rect x="112.95" y="641.40" width="8.65" height="18.40" fill="#e5e7eb"/>
<rect x="121.40" y="641.40" width="8.65" height="18.40" fill="#e5e7eb"/>
<rect x="129.85" y="641.40" width="8.65" height="18.40" fill="#e5e7eb"/>
<rect x="138.30" y="641.40" width="8.65" height="18.40" fill="#e5e7eb"/>
<rect x="146.75" y="641.40" width="8.65" height="18.40" fill="#e5e7eb"/>
<rect x="155.20" y="641.40" width="8.65" height="18.40" fill="#e5e7eb"/>
<rect x="163.65" y="641.40" width="8.65" height="18.40" fill="#e5e7eb"/>
<rect x="172.10" y="641.40" width="8.65" height="18.40" fill="#e5e7eb"/>
<rect x="180.55" y="641.40" width="8.65" height="18.40" fill="#e5e7eb"/>
<rect x="189.00" y="641.40" width="8.65" height="18.40" fill="#e5e7eb"/>
<rect x="197.45" y="641.40" width="8.65" height="18.40" fill="#e5e7eb"/>
<rect x="205.90" y="641.40" width="8.65" height="18.40" fill="#e5e7eb"/>
<rect x="214.35" y="641.40" width="8.65" height="18.40" fill="#e5e7eb"/>
<rect x="222.80" y="641.40" width="8.65" height="18.40" fill="#e5e7eb"/>
<rect x="231.25" y="641.40" width="8.65" height="18.40" fill="#e5e7eb"/>
<rect x="239.70" y="641.40" width="8.65" height="18.40" fill="#e5e7eb"/>
<rect x="248.15" y="641.40" width="8.65" height="18.40" fill="#e5e7eb"/>
<rect x="256.60" y="641.40" width="8.65" height="18.40" fill="#e5e7eb"/>
<rect x="265.05" y="641.40" width="8.65" height="18.40" fill="#e5e7eb"/>
<rect x="273.50" y="641.40" width="8.65" height="18.40" fill="#e5e7eb"/>
<rect x="281.95" y="641.40" width="8.65" height="18.40" fill="#e5e7eb"/>
<rect x="290.40" y="641.40" width="8.65" height="18.40" fill="#e5e7eb"/>
<rect x="298.85" y="641.40" width="8.65" height="18.40" fill="#e5e7eb"/>
<rect x="307.30" y="641.40" width="8.65" height="18.40" fill="#e5e7eb"/>
<rect x="315.75" y="641.40" width="8.65" height="18.40" fill="#e5e7eb"/>
<rect x="324.20" y="641.40" width="8.65" height="18.40" fill="#e5e7eb"/>
<rect x="332.65" y="641.40" width="8.65" height="18.40" fill="#e5e7eb"/>
<rect x="341.10" y="641.40" width="8.65" height="18.40" fill="#e5e7eb"/>
<rect x="349.55" y="641.40" width="8.65" height="18.40" fill="#e5e7eb"/>
<rect x="358.00" y="641.40" width="8.65" height="18.40" fill="#e5e7eb"/>
<rect x="366.45" y="641.40" width="8.65" height="18.40" fill="#e5e7eb"/>
<rect x="374.90" y="641.40" width="8.65" height="18.40" fill="#e5e7eb"/>
<rect x="383.35" y="641.40" width="8.65" height="18.40" fill="#e5e7eb"/>
<rect x="391.80" y="641.40" width="8.65" height="18.40" fill="#e5e7eb"/>
<rect x="400.25" y="641.40" width="8.65" height="18.40" fill="#e5e7eb"/>
<rect x="408.70" y="641.40" width="8.65" height="18.40" fill="#e5e7eb"/>
<rect x="417.15" y="641.40" width="8.65" height="18.40" fill="#e5e7eb"/>
<rect x="425.60" y="641.40" width="8.65" height="18.40" fill="#e5e7eb"/>
<rect x="434.05" y="641.40" width="8.65" height="18.40" fill="#e5e7eb"/>
<rect x="442.50" y="641.40" width="8.65" height="18.40" fill="#e5e7eb"/>
<rect x="450.95" y="641.40" width="8.65" height="18.40" fill="#e5e7eb"/>
<rect x="459.40" y="641.40" width="8.65" height="18.40" fill="#e5e7eb"/>
<rect x="467.85" y="641.40" width="8.65" height="18.40" fill="#e5e7eb"/>
<rect x="476.30" y="641.40" width="8.65" height="18.40" fill="#e5e7eb"/>
<rect x="484.75" y="641.40" width="8.65" height="18.40" fill="#e5e7eb"/>
<rect x="493.20" y="641.40" width="8.65" height="18.40" fill="#e5e7eb"/>
<rect x="501.65" y="641.40" width="8.65" height="18.40" fill="#e5e7eb"/>
<rect x="510.10" y="641.40" width="8.65" height="18.40" fill="#e5e7eb"/>
<rect x="518.55" y="641.40" width="8.65" height="18.40" fill="#e5e7eb"/>
<rect x="527.00" y="641.40" width="8.65" height="18.40" fill="#e5e7eb"/>
<rect x="535.45" y="641.40" width="8.65" height="18.40" fill="#e5e7eb"/>
<rect x="543.90" y="641.40" width="8.65" height="18.40" fill="#e5e7eb"/>
<rect x="552.35" y="641.40" width="8.65" height="18.40" fill="#e5e7eb"/>
<rect x="560.80" y="641.40" width="8.65" height="18.40" fill="#e5e7eb"/>
<rect x="569.25" y="641.40" width="8.65" height="18.40" fill="#e5e7eb"/>
<rect x="577.70" y="641.40" width="8.65" height="18.40" fill="#e5e7eb"/>
<rect x="586.15" y="641.40" width="8.65" height="18.40" fill="#e5e7eb"/>
<rect x="594.60" y="641.40" width="8.65" height="18.40" fill="#e5e7eb"/>
<rect x="603.05" y="641.40" width="8.65" height="18.40" fill="#e5e7eb"/>
<rect x="611.50" y="641.40" width="8.65" height="18.40" fill="#e5e7eb"/>
<rect x="619.95" y="641.40" width="8.65" height="18.40" fill="#e5e7eb"/>
<rect x="628.40" y="641.40" width="8.65" height="18.40" fill="#e5e7eb"/>
<rect x="636.85" y="641.40" width="8.65" height="18.40" fill="#e5e7eb"/>
<rect x="645.30" y="641.40" width="8.65" height="18.40" fill="#e5e7eb"/>
<rect x="653.75" y="641.40" width="8.65" height="18.40" fill="#e5e7eb"/>
<rect x="662.20" y="641.40" width="8.65" height="18.40" fill="#e5e7eb"/>
<rect x="670.65" y="641.40" width="8.65" height="18.40" fill="#e5e7eb"/>
<rect x="679.10" y="641.40" width="8.65" height="18.40" fill="#e5e7eb"/>
<rect x="687.55" y="641.40" width="8.65" height="18.40" fill="#e5e7eb"/>
<rect x="696.00" y="641.40" width="8.65" height="18.40" fill="#e5e7eb"/>
<rect x="704.45" y="641.40" width="8.65" height="18.40" fill="#e5e7eb"/>
<rect x="712.90" y="641.40" width="8.65" height="18.40" fill="#e5e7eb"/>
<rect x="721.35" y="641.40" width="8.65" height="18.40" fill="#e5e7eb"/>
<rect x="729.80" y="641.40" width="8.65" height="18.40" fill="#e5e7eb"/>
<rect x="738.25" y="641.40" width="8.65" height="18.40" fill="#e5e7eb"/>
<rect x="746.70" y="641.40" width="8.65" height="18.40" fill="#e5e7eb"/>
<rect x="755.15" y="641.40" width="8.65" height="18.40" fill="#e5e7eb"/>
<rect x="763.60" y="641.40" width="8.65" height="18.40" fill="#e5e7eb"/>
<rect x="772.05" y="641.40" width="8.65" height="18.40" fill="#e5e7eb"/>
<rect x="780.50" y="641.40" width="8.65" height="18.40" fill="#e5e7eb"/>
<rect x="788.95" y="641.40" width="8.65" height="18.40" fill="#e5e7eb"/>
<rect x="797.40" y="641.40" width="8.65" height="18.40" fill="#e5e7eb"/>
<rect x="805.85" y="641.40" width="8.65" height="18.40" fill="#e5e7eb"/>
<rect x="814.30" y="641.40" width="8.65" height="18.40" fill="#e5e7eb"/>
<rect x="822.75" y="641.40" width="8.65" height="18.40" fill="#e5e7eb"/>
<rect x="831.20" y="641.40" width="8.65" height="18.40" fill="#e5e7eb"/>
<rect x="839.65" y="641.40" width="8.65" height="18.40" fill="#e5e7eb"/>
<rect x="848.10" y="641.40" width="8.65" height="18.40" fill="#e5e7eb"/>
<rect x="856.55" y="641.40" width="8.65" height="18.40" fill="#e5e7eb"/>
<rect x="865.00" y="641.40" width="8.65" height="18.40" fill="#e5e7eb"/>
<rect x="873.45" y="641.40" width="8.65" height="18.40" fill="#e5e7eb"/>
<rect x="881.90" y="641.40" width="8.65" height="18.40" fill="#e5e7eb"/>
<rect x="890.35" y="641.40" width="8.65" height="18.40" fill="#e5e7eb"/>
<rect x="898.80" y="641.40" width="8.65" height="18.40" fill="#e5e7eb"/>
<rect x="907.25" y="641.40" width="8.65" height="18.40" fill="#e5e7eb"/>
<rect x="915.70" y="641.40" width="8.65" height="18.40" fill="#e5e7eb"/>
<rect x="924.15" y="641.40" width="8.65" height="18.40" fill="#e5e7eb"/>
<rect x="932.60" y="641.40" width="8.65" height="18.40" fill="#e5e7eb"/>
<rect x="941.05" y="641.40" width="8.65" height="18.40" fill="#e5e7eb"/>
<text x="28.45" y="655.20" font-family="Menlo, monospace" font-size="14" font-variant-ligatures="none" xml:space="preserve" font-weight="400" opacity="1" fill="#0b1020">n add  [ ] month  t today  p theme  ? help  q quit</text>
</svg>
